# xmcd CD database file
#
# Track frame offsets:
#	150
#	14683
#	36697
#	51539
#	71055
#	87727
#	101424
#	120698
#	140358
#	154301
#	170474
#	185501
#	201011
#	215267
#	237555
#
# Disc length: 3400 seconds
#
# Revision: 2
# Processed by: cddbd v1.5.2PL0 Copyright (c) Steve Scherf et al.
# Submitted via: CDex 1.51
#
DISCID=e90d460f
DTITLE=Randy Houser - How Country Feels
DYEAR=2013
DGENRE=Country
TTITLE0=Randy Houser - Runnin' Outta Moonlight
TTITLE1=Randy Houser - Growin' Younger
TTITLE2=Randy Houser - Top Of The World
TTITLE3=Randy Houser - The Singer
TTITLE4=Randy Houser - Power Of A Song
TTITLE5=Randy Houser - Absolutely Nothing
TTITLE6=Randy Houser with Kristy Lee Cook - Wherever Loves Goes
TTITLE7=Randy Houser - Like A Cowboy
TTITLE8=Randy Houser - How Country Feels
TTITLE9=Randy Houser - Along For The Ride
TTITLE10=Randy Houser - Sunshine On The Line
TTITLE11=Randy Houser - Goodnight Kiss
TTITLE12=Randy Houser - Let's Not Let It 
TTITLE13=Randy Houser - Shine
TTITLE14=Randy Houser - Route 3 Box 250 D
EXTD=YEAR: 2013
EXTT0=
EXTT1=
EXTT2=
EXTT3=
EXTT4=
EXTT5=
EXTT6=
EXTT7=
EXTT8=
EXTT9=
EXTT10=
EXTT11=
EXTT12=
EXTT13=
EXTT14=
PLAYORDER=
